<svg width="85" height="15" viewBox="0 0 85 15" fill="none" xmlns="http://www.w3.org/2000/svg">
<path d="M11.9522 -4.48227e-05V14.5454H9.60849L2.75479 4.63774H2.63406V14.5454H-0.000887811V-4.48227e-05H2.35707L9.20366 9.91473H9.3315V-4.48227e-05H11.9522ZM18.9682 14.7585C17.9029 14.7585 16.9796 14.5241 16.1983 14.0554C15.4171 13.5866 14.811 12.9308 14.3801 12.088C13.954 11.2452 13.7409 10.2604 13.7409 9.13348C13.7409 8.00658 13.954 7.01937 14.3801 6.17183C14.811 5.32429 15.4171 4.66615 16.1983 4.1974C16.9796 3.72865 17.9029 3.49427 18.9682 3.49427C20.0336 3.49427 20.9569 3.72865 21.7381 4.1974C22.5194 4.66615 23.123 5.32429 23.5492 6.17183C23.9801 7.01937 24.1955 8.00658 24.1955 9.13348C24.1955 10.2604 23.9801 11.2452 23.5492 12.088C23.123 12.9308 22.5194 13.5866 21.7381 14.0554C20.9569 14.5241 20.0336 14.7585 18.9682 14.7585ZM18.9824 12.6988C19.5601 12.6988 20.043 12.5402 20.4313 12.223C20.8195 11.901 21.1084 11.4701 21.2978 10.9304C21.4919 10.3906 21.589 9.78925 21.589 9.12638C21.589 8.45876 21.4919 7.85507 21.2978 7.3153C21.1084 6.77079 20.8195 6.33755 20.4313 6.01558C20.043 5.69361 19.5601 5.53263 18.9824 5.53263C18.3906 5.53263 17.8981 5.69361 17.5051 6.01558C17.1169 6.33755 16.8257 6.77079 16.6316 7.3153C16.4422 7.85507 16.3475 8.45876 16.3475 9.12638C16.3475 9.78925 16.4422 10.3906 16.6316 10.9304C16.8257 11.4701 17.1169 11.901 17.5051 12.223C17.8981 12.5402 18.3906 12.6988 18.9824 12.6988ZM25.8777 14.5454V3.63632H28.335V5.49001H28.4629C28.6902 4.86501 29.0666 4.37732 29.5922 4.02694C30.1177 3.67183 30.7451 3.49427 31.4743 3.49427C32.2129 3.49427 32.8355 3.6742 33.3422 4.03405C33.8535 4.38916 34.2134 4.87448 34.4217 5.49001H34.5353C34.7768 4.88395 35.184 4.401 35.7569 4.04115C36.3346 3.67657 37.0188 3.49427 37.8095 3.49427C38.8133 3.49427 39.6324 3.81151 40.2669 4.44598C40.9013 5.08045 41.2186 6.00611 41.2186 7.22297V14.5454H38.6404V7.62069C38.6404 6.94361 38.4605 6.44882 38.1007 6.13632C37.7408 5.81908 37.3005 5.66047 36.7797 5.66047C36.1594 5.66047 35.6741 5.8546 35.3237 6.24285C34.978 6.62638 34.8052 7.1259 34.8052 7.74143V14.5454H32.2839V7.51416C32.2839 6.95071 32.1135 6.5009 31.7725 6.16473C31.4364 5.82855 30.996 5.66047 30.4515 5.66047C30.0822 5.66047 29.746 5.75516 29.443 5.94456C29.14 6.12922 28.8985 6.392 28.7186 6.73291C28.5386 7.06908 28.4487 7.46208 28.4487 7.91189V14.5454H25.8777Z" fill="#FAFAFA"/>
<path d="M55.3936 -4.48227e-05V14.5454H53.0499L46.1962 4.63774H46.0755V14.5454H43.4405V-4.48227e-05H45.7985L52.6451 9.91473H52.7729V-4.48227e-05H55.3936ZM62.4096 14.7585C61.3443 14.7585 60.421 14.5241 59.6397 14.0554C58.8585 13.5866 58.2524 12.9308 57.8216 12.088C57.3954 11.2452 57.1824 10.2604 57.1824 9.13348C57.1824 8.00658 57.3954 7.01937 57.8216 6.17183C58.2524 5.32429 58.8585 4.66615 59.6397 4.1974C60.421 3.72865 61.3443 3.49427 62.4096 3.49427C63.475 3.49427 64.3983 3.72865 65.1795 4.1974C65.9608 4.66615 66.5645 5.32429 66.9906 6.17183C67.4215 7.01937 67.6369 8.00658 67.6369 9.13348C67.6369 10.2604 67.4215 11.2452 66.9906 12.088C66.5645 12.9308 65.9608 13.5866 65.1795 14.0554C64.3983 14.5241 63.475 14.7585 62.4096 14.7585ZM62.4238 12.6988C63.0015 12.6988 63.4844 12.5402 63.8727 12.223C64.2609 11.901 64.5498 11.4701 64.7392 10.9304C64.9333 10.3906 65.0304 9.78925 65.0304 9.12638C65.0304 8.45876 64.9333 7.85507 64.7392 7.3153C64.5498 6.77079 64.2609 6.33755 63.8727 6.01558C63.4844 5.69361 63.0015 5.53263 62.4238 5.53263C61.832 5.53263 61.3395 5.69361 60.9466 6.01558C60.5583 6.33755 60.2671 6.77079 60.073 7.3153C59.8836 7.85507 59.7889 8.45876 59.7889 9.12638C59.7889 9.78925 59.8836 10.3906 60.073 10.9304C60.2671 11.4701 60.5583 11.901 60.9466 12.223C61.3395 12.5402 61.832 12.6988 62.4238 12.6988ZM69.3191 14.5454V3.63632H71.7765V5.49001H71.9043C72.1316 4.86501 72.508 4.37732 73.0336 4.02694C73.5591 3.67183 74.1865 3.49427 74.9157 3.49427C75.6543 3.49427 76.2769 3.6742 76.7836 4.03405C77.2949 4.38916 77.6548 4.87448 77.8631 5.49001H77.9767C78.2182 4.88395 78.6254 4.401 79.1983 4.04115C79.776 3.67657 80.4602 3.49427 81.2509 3.49427C82.2547 3.49427 83.0738 3.81151 83.7083 4.44598C84.3427 5.08045 84.66 6.00611 84.66 7.22297V14.5454H82.0819V7.62069C82.0819 6.94361 81.9019 6.44882 81.5421 6.13632C81.1822 5.81908 80.7419 5.66047 80.2211 5.66047C79.6008 5.66047 79.1155 5.8546 78.7651 6.24285C78.4194 6.62638 78.2466 7.1259 78.2466 7.74143V14.5454H75.7253V7.51416C75.7253 6.95071 75.5549 6.5009 75.214 6.16473C74.8778 5.82855 74.4374 5.66047 73.8929 5.66047C73.5236 5.66047 73.1874 5.75516 72.8844 5.94456C72.5814 6.12922 72.3399 6.392 72.16 6.73291C71.9801 7.06908 71.8901 7.46208 71.8901 7.91189V14.5454H69.3191Z" fill="#EF4444"/>
</svg>
