<svg width="156" height="266" viewBox="0 0 156 266" fill="none" xmlns="http://www.w3.org/2000/svg">
<path fill-rule="evenodd" clip-rule="evenodd" d="M88.334 232.342C88.3377 232.313 88.3429 232.284 88.3473 232.256C88.3498 232.282 88.4227 231.98 88.4418 231.923C88.5734 231.535 88.7168 231.156 88.8417 230.771C88.8804 230.779 88.9191 230.786 88.9581 230.795C89.0879 230.827 89.1966 230.949 89.3276 230.972C89.4507 230.994 89.4976 230.914 89.6203 230.938C89.7523 230.961 89.8968 231.025 90.0205 231.046C90.1509 231.068 90.2708 231.116 90.4137 231.152C90.6599 231.216 90.9248 231.242 91.1932 231.26C91.5451 231.285 91.9019 231.296 92.2282 231.354C92.8198 231.46 93.4837 231.498 94.0825 231.544C94.6019 231.583 95.1194 231.397 95.6297 231.36C96.109 231.325 96.5434 231.368 97.0147 231.206C97.6163 231 98.3355 230.88 98.8937 230.597C99.4499 230.317 100.048 230.138 100.619 229.892C101.6 229.469 102.6 229.037 103.555 228.562C103.943 228.371 104.292 228.144 104.701 227.999C105.221 227.815 105.733 227.644 106.232 227.406C107.741 226.68 109.28 226.051 110.643 225.065L107.993 236.17C107.557 236.002 106.899 236.211 106.439 236.225C105.844 236.244 105.232 236.247 104.637 236.246C103.98 236.243 103.308 236.234 102.651 236.184C101.915 236.128 101.207 235.972 100.477 235.897C99.2276 235.768 97.997 235.545 96.7479 235.406C96.2509 235.35 95.7723 235.352 95.2762 235.247C94.7846 235.14 94.3638 234.878 93.8738 234.771C93.2832 234.641 92.7883 234.529 92.2367 234.278C92.1136 234.221 91.9877 234.177 91.8608 234.139C91.5054 234.027 91.1411 233.959 90.7941 233.804C90.1125 233.497 89.4267 233.201 88.7411 232.904C88.6575 232.687 88.522 232.49 88.334 232.342Z" fill="#1A969B"/>
<path fill-rule="evenodd" clip-rule="evenodd" d="M88.334 232.342C88.3377 232.313 88.3429 232.285 88.3473 232.256C88.3498 232.282 88.4227 231.98 88.4418 231.923C88.5734 231.535 88.7168 231.156 88.8417 230.771C88.8804 230.779 88.9191 230.786 88.9581 230.796C89.0879 230.828 89.1966 230.949 89.3276 230.972C89.4507 230.994 89.4976 230.914 89.6203 230.938C89.7523 230.961 89.8968 231.025 90.0205 231.046C90.1509 231.068 90.2708 231.116 90.4137 231.152C90.6598 231.216 90.9248 231.242 91.1932 231.261C91.3104 231.821 91.4142 232.384 91.5448 232.942C91.6378 233.341 91.7515 233.739 91.8608 234.139C91.5054 234.028 91.1411 233.959 90.7941 233.804C90.1125 233.498 89.4267 233.201 88.7411 232.904C88.6575 232.687 88.522 232.49 88.334 232.342Z" fill="#AB7D5F"/>
<path fill-rule="evenodd" clip-rule="evenodd" d="M106.352 244.519C106.445 244.853 106.458 245.182 106.537 245.528C106.718 246.327 107.073 247.082 107.302 247.868C107.742 249.372 107.664 250.948 107.718 252.522C107.777 254.23 108.116 256.255 107.975 258.098C107.888 259.225 107.621 260.285 107.002 261.164C106.614 261.716 106.271 261.995 106.446 262.706C106.524 263.02 106.671 263.39 106.753 263.716C106.833 264.028 106.608 264.4 107.107 264.415C107.808 264.437 108.556 262.447 108.786 261.964C109.112 261.285 109.511 260.623 109.674 259.914C109.723 259.704 109.758 259.49 109.783 259.272C109.86 258.635 109.867 257.972 109.946 257.341C110.187 255.411 110.586 253.501 110.364 251.518C110.958 252.076 112.012 252.2 112.788 252.422C113.733 252.691 114.61 252.489 115.578 252.655C116.75 252.859 117.863 253.19 119.07 253.135C119.942 253.096 121.11 252.865 121.951 253.105C123.236 253.472 123.945 256.063 124.366 257.087C124.606 257.671 124.897 258.252 125.168 258.827C125.487 259.501 125.782 260.17 125.945 260.834C126.013 261.11 125.87 261.436 125.944 261.71C125.984 261.853 126.221 262.024 126.239 262.096C126.324 262.449 126.278 262.83 126.38 263.172C126.494 263.555 126.984 264.377 127.24 264.702C127.443 264.959 128.421 266.007 128.752 265.604C129.06 265.228 128.497 264.975 128.414 264.671C128.323 264.341 128.316 263.952 128.229 263.644C128.043 262.998 127.753 262.309 127.645 261.642C127.582 261.254 127.689 260.86 127.585 260.482C127.496 260.153 127.308 260.02 127.243 259.626C127.215 259.461 127.192 259.293 127.174 259.124C127.007 257.638 127.143 256.027 127.083 254.55C127.045 253.625 127.396 253.061 127.354 252.172C127.315 251.385 127.331 250.595 127.304 249.807C127.245 248.117 127.129 244.755 127.129 244.755L106.095 243.783C105.963 244.273 106.273 244.226 106.352 244.519Z" fill="#BA8C6A"/>
<path fill-rule="evenodd" clip-rule="evenodd" d="M50.6287 90.9927C50.5778 88.1335 50.5252 85.1771 51.2064 82.3293C51.4795 81.1872 51.8745 80.0699 52.2564 78.9895C52.6088 77.9926 52.9732 76.9618 53.2402 75.9157C53.2971 75.6931 53.3552 75.4275 53.4166 75.1466C53.7638 73.5596 54.2883 71.1612 55.8844 70.6938L55.9425 70.8928C54.4646 71.3257 53.9559 73.6516 53.6192 75.191C53.5573 75.4738 53.4989 75.7408 53.4411 75.967C53.1718 77.0221 52.8059 78.0574 52.4519 79.0585C52.0718 80.134 51.6787 81.246 51.408 82.3775C50.733 85.1997 50.7854 88.1427 50.836 90.989C50.8495 91.748 50.8635 92.5329 50.8635 93.304V104.352C50.8635 106.496 50.8607 108.799 50.8406 111.11C50.8306 112.244 50.986 113.351 51.1363 114.421C51.2623 115.318 51.3925 116.245 51.4264 117.189C51.4538 117.952 51.4329 118.725 51.4128 119.473C51.3851 120.501 51.3564 121.565 51.4537 122.607C51.5136 123.249 51.603 123.87 51.6894 124.471C51.8505 125.592 52.0027 126.65 51.9809 127.833C51.9604 128.943 52.1269 130.025 52.2882 131.072C52.4154 131.898 52.547 132.752 52.5886 133.624C52.606 133.991 52.6161 134.35 52.6258 134.698C52.6582 135.846 52.6886 136.931 52.974 138.108C53.1501 138.833 53.2846 139.552 53.4147 140.246C53.7262 141.91 54.0205 143.481 54.8359 145.052C55.346 146.035 55.8464 147.043 56.3303 148.018C56.69 148.743 57.0619 149.492 57.4348 150.225C58.1974 151.723 58.7585 153.263 59.3012 154.752C59.5834 155.527 59.8752 156.327 60.195 157.124C60.5378 157.977 61.0265 158.826 61.4991 159.647C61.7905 160.153 62.0917 160.676 62.3527 161.191C62.8828 162.236 63.3445 163.315 63.7908 164.359C64.2735 165.487 64.7724 166.653 65.3593 167.781C66.533 170.035 67.1151 172.163 67.6555 174.326C68.1134 176.159 69.0479 177.905 69.9516 179.593L70.1336 179.934C70.458 180.541 70.724 181.157 70.9814 181.752C71.3107 182.514 71.6513 183.302 72.1119 184.062C72.3862 184.515 72.6587 184.99 72.9223 185.45C73.5523 186.55 74.2036 187.687 74.9686 188.674C75.4092 189.243 75.925 189.756 76.4239 190.253C76.9207 190.748 77.4343 191.26 77.8781 191.829C78.4702 192.588 79.1978 193.329 79.9014 194.046C81.1182 195.286 82.3764 196.568 83.0731 198.057C83.5408 199.057 84.1667 200.011 84.7721 200.934C85.4627 201.987 86.1768 203.076 86.6893 204.271C87.4885 206.134 88.1905 208.313 88.7758 210.75C89.0655 211.956 89.3712 213.202 89.7102 214.559C89.8782 215.23 89.901 215.867 89.9231 216.484C89.9401 216.961 89.9579 217.454 90.0426 217.964C90.1647 218.701 90.3411 219.44 90.5118 220.155C90.8084 221.397 91.1149 222.682 91.1456 223.991C91.188 225.8 91.1742 227.641 91.1609 229.422C91.1544 230.297 91.1476 231.201 91.1476 232.089C91.1476 232.586 91.1733 233.117 91.198 233.631C91.2458 234.621 91.2952 235.645 91.1767 236.581C91.1096 237.111 90.9976 237.612 90.8894 238.097C90.7251 238.833 90.5699 239.528 90.5584 240.314C90.5301 242.24 90.5436 244.202 90.5566 246.099C90.564 247.171 90.5717 248.28 90.5717 249.37C90.5717 249.709 90.5333 250.196 90.4889 250.759C90.4768 250.911 90.4644 251.071 90.452 251.235C90.3841 251.216 90.3161 251.198 90.2483 251.179C90.2596 251.03 90.271 250.885 90.2821 250.743C90.3262 250.184 90.3643 249.701 90.3643 249.37C90.3643 248.28 90.3567 247.172 90.3492 246.1C90.3362 244.202 90.3227 242.24 90.351 240.311C90.3628 239.504 90.5277 238.766 90.6871 238.052C90.7943 237.572 90.9051 237.075 90.9709 236.555C91.0872 235.637 91.0382 234.622 90.991 233.64C90.966 233.125 90.9404 232.591 90.9404 232.089C90.9404 231.2 90.947 230.296 90.9535 229.421C90.9668 227.641 90.9806 225.801 90.9384 223.996C90.9082 222.709 90.6041 221.435 90.3101 220.203C90.1386 219.485 89.9613 218.742 89.8379 217.998C89.7511 217.475 89.7331 216.975 89.7158 216.491C89.6931 215.858 89.6717 215.259 89.5091 214.609C89.1698 213.252 88.864 212.005 88.5742 210.798C87.9917 208.373 87.2934 206.204 86.4988 204.352C85.9934 203.174 85.2843 202.093 84.5987 201.048C83.9893 200.119 83.3593 199.158 82.8853 198.145C82.2037 196.687 80.958 195.419 79.7534 194.191C79.0457 193.47 78.3139 192.725 77.7146 191.956C77.2789 191.398 76.7698 190.891 76.2775 190.4C75.7741 189.899 75.2534 189.38 74.8048 188.801C74.0309 187.802 73.3759 186.659 72.7424 185.553C72.4795 185.094 72.2076 184.62 71.9345 184.17C71.4666 183.397 71.1231 182.603 70.791 181.834C70.5354 181.243 70.271 180.631 69.9507 180.031L69.7688 179.691C68.8591 177.991 67.9184 176.234 67.4542 174.376C66.9171 172.226 66.3386 170.11 65.1754 167.876C64.5848 166.742 64.0843 165.572 63.6002 164.44C63.1551 163.4 62.6948 162.324 62.1678 161.285C61.9093 160.775 61.6094 160.254 61.3194 159.75C60.8431 158.923 60.3508 158.068 60.0027 157.201C59.6816 156.401 59.3892 155.599 59.1064 154.823C58.541 153.272 58.0069 151.806 57.25 150.319C56.8767 149.585 56.5045 148.835 56.1446 148.11C55.661 147.136 55.1612 146.129 54.6518 145.148C53.8223 143.55 53.5253 141.964 53.2109 140.284C53.0813 139.592 52.9473 138.877 52.7726 138.156C52.4821 136.959 52.4511 135.864 52.4185 134.704C52.4088 134.357 52.3988 133.999 52.3814 133.634C52.3404 132.773 52.2097 131.924 52.0832 131.104C51.9208 130.048 51.7527 128.957 51.7736 127.829C51.7951 126.663 51.644 125.613 51.4841 124.501C51.3974 123.897 51.3076 123.273 51.2472 122.626C51.1487 121.571 51.1776 120.502 51.2055 119.467C51.2256 118.723 51.2463 117.953 51.2192 117.196C51.1857 116.263 51.0563 115.341 50.931 114.45C50.7797 113.372 50.6232 112.257 50.6332 111.108C50.6534 108.798 50.6562 106.496 50.6562 104.352V93.304C50.6562 92.5347 50.6422 91.7508 50.6287 90.9927Z" fill="black" stroke="black" stroke-width="2"/>
<path fill-rule="evenodd" clip-rule="evenodd" d="M27.2755 65.7731C27.2588 65.7642 27.2607 65.7654 27.2755 65.7731V65.7731Z" fill="#F5938A"/>
<path fill-rule="evenodd" clip-rule="evenodd" d="M0.616095 45.7129L0 50.8325C0.0799596 53.207 0.224026 55.5797 0.428928 57.9464C0.895607 63.3186 1.67895 68.6611 2.72933 73.9499C3.17411 76.1879 3.70212 78.4158 4.27561 80.6234C4.41135 81.1459 4.55106 81.6668 4.6975 82.1866C4.70563 82.2143 4.71365 82.2429 4.72178 82.2707C4.72069 82.2638 4.71851 82.2579 4.71732 82.252C4.72079 82.2629 4.72406 82.2757 4.72713 82.2894C4.72604 82.2827 4.72396 82.2766 4.72178 82.2707C4.73367 82.3151 4.74655 82.3586 4.75834 82.403C4.75319 82.3824 4.74784 82.3635 4.74328 82.3458C4.75418 82.3825 4.76349 82.4161 4.77013 82.4397C4.85217 82.7179 4.9353 82.9953 5.0212 83.2729C5.33262 84.2785 5.67089 85.2758 6.04502 86.2603C6.4153 87.2377 6.82134 88.2022 7.26899 89.1469C7.70882 90.0772 8.2616 90.9495 8.71619 91.8683C8.65357 91.7376 8.62612 91.6808 8.62345 91.6709C8.64079 91.6931 8.82835 92.0546 8.89494 92.16C9.03841 92.3874 9.18406 92.613 9.33377 92.8363C9.65004 93.3097 9.9788 93.7751 10.3201 94.2305C10.998 95.1351 11.725 96.0026 12.4951 96.8305C12.6768 97.0261 12.8607 97.2191 13.0468 97.4096C13.1565 97.5221 13.2655 97.6555 13.3882 97.7543C12.6835 97.1844 13.8572 98.2118 13.5752 97.9372C13.6275 97.9865 13.6756 98.0314 13.6815 98.0378C13.8057 98.1559 13.9301 98.273 14.0555 98.3884C14.3045 98.6198 14.5577 98.8479 14.8134 99.0715C15.7453 99.8874 16.7172 100.655 17.7234 101.378C18.7222 102.097 19.7543 102.771 20.8104 103.403C21.048 103.546 21.2869 103.703 21.5343 103.828C21.4165 103.768 21.3535 103.737 21.3299 103.726C21.3997 103.765 21.7796 103.964 21.8809 104.019C22.4699 104.344 23.0651 104.657 23.6656 104.959C28.1549 107.222 32.9171 108.924 37.6719 110.536C38.9742 110.978 40.2908 111.366 41.617 111.729C41.6391 111.735 41.6697 111.744 41.7011 111.752C41.829 111.785 41.9559 111.816 42.0838 111.848C42.3832 111.922 42.684 111.994 42.9848 112.064C43.7036 112.231 44.4267 112.386 45.1511 112.529C47.8058 113.054 50.4913 113.418 53.1863 113.656C55.8926 113.895 58.6085 114.006 61.3249 114.033C61.9925 114.039 62.6595 114.041 63.3272 114.037C63.5039 114.036 63.6815 114.036 63.8585 114.033C63.8585 114.033 63.8537 114.033 63.852 114.032C63.8586 114.032 63.8661 114.033 63.8737 114.033C63.8833 114.033 63.8928 114.034 63.9023 114.034C64.3174 114.026 64.0005 114.043 63.8737 114.033C63.8689 114.034 63.8631 114.034 63.8585 114.033C64.1812 114.112 64.6976 113.985 65.0258 113.971C66.3857 113.912 67.747 113.872 69.1069 113.828C71.8411 113.74 74.5784 113.64 77.2998 113.349C78.469 113.225 79.6235 113.11 80.784 112.907C81.9837 112.696 83.1816 112.459 84.3935 112.327C89.1566 110.284 93.5785 107.452 97.6003 104.128C101.983 100.507 106.081 95.8806 109.684 91.5137C112.858 87.6644 115.648 83.657 117.394 78.976C118.245 76.6944 119.298 74.4534 119.805 72.0655C120.265 69.9058 120.361 67.6165 120.626 65.4209C121.158 61.0159 121.981 56.7365 121.422 52.3127C121.043 49.3121 120.946 46.2232 120.043 43.3239C119.336 41.0542 118.52 38.7926 117.613 36.5963C115.704 31.9699 113.495 27.3209 111.126 22.9008C111.052 22.759 110.975 22.6181 110.899 22.4772C110.715 22.1361 110.531 21.796 110.345 21.4558C109.864 20.5739 109.376 19.6932 108.884 18.8128C106.717 17.2306 104.641 15.521 102.479 13.9298C101.658 13.326 100.825 12.7397 99.9704 12.1834C99.5676 11.921 99.1602 11.6658 98.7469 11.4183C98.6472 11.3587 98.4015 11.2193 98.3704 11.2002C98.3704 11.2002 98.3768 11.2029 98.3831 11.2056C98.1764 11.0909 97.9696 10.9763 97.7604 10.8671C95.8978 9.88396 93.9451 9.0474 92.0107 8.21689C90.6491 7.63203 89.2784 7.06789 87.8968 6.5302C87.0526 6.19952 86.2034 5.87964 85.3509 5.56977C84.8626 5.3917 84.3718 5.2171 83.8806 5.04725C82.4696 4.55663 81.0491 4.09633 79.6169 3.66993C79.3137 3.58005 79.0103 3.49096 78.7066 3.40485C78.4768 3.33895 78.2478 3.27415 78.0179 3.21023C77.7851 3.14493 77.5522 3.0816 77.3191 3.01917C77.1859 2.984 77.0526 2.94892 76.9203 2.91384C76.9148 2.91225 76.9102 2.91077 76.9065 2.91027C76.8861 2.90502 76.863 2.89937 76.8351 2.89214C75.7847 2.633 74.7323 2.39082 73.6719 2.17439C72.4728 1.92983 71.2695 1.70379 70.0628 1.49748C69.2416 1.35666 68.4193 1.22516 67.5949 1.10308C66.2377 0.902511 64.8773 0.727312 63.5138 0.579462C62.9399 0.517033 62.3655 0.459359 61.7904 0.407335C60.5526 0.293673 59.313 0.202704 58.0712 0.137202C57.1759 0.0886461 56.279 0.0532692 55.3816 0.0302792C54.6668 0.0120458 53.952 0.00233452 53.2381 0C52.928 0 52.6177 0 52.308 0.00302819L52.1448 0.00342457C52.1132 0.00352366 52.0615 0.00491099 51.9821 0.00679379C51.759 0.0114512 51.5351 0.0160096 51.3121 0.0215589C50.7701 0.0356304 50.2284 0.0544584 49.6862 0.0779438C49.1258 0.102222 48.5656 0.132149 48.0047 0.168715C46.5955 0.256909 45.188 0.379588 43.7839 0.537149C39.7796 0.986048 35.807 1.71856 31.9066 2.73279C31.406 2.86251 30.9068 2.99718 30.4088 3.1368C30.3191 3.16128 30.2291 3.18674 30.1401 3.21231C29.8649 3.29377 29.5898 3.37423 29.3146 3.45668C28.3149 3.75931 27.3207 4.07979 26.3321 4.4181C24.8292 4.93309 23.3413 5.48961 21.8688 6.08586C21.0491 6.41773 20.3147 6.93282 19.7261 7.59299C19.7231 7.59636 19.7201 7.59983 19.717 7.6032C19.0294 8.37495 18.3625 9.16533 17.6895 9.95036C17.4298 10.2523 17.1691 10.5541 16.9067 10.8548C16.4895 11.3306 16.0663 11.8019 15.6336 12.2635C15.4036 12.5098 15.1709 12.753 14.935 12.992C14.8119 13.1184 14.6872 13.2428 14.5617 13.3661C14.1467 13.7754 13.7218 14.173 13.2833 14.5566C12.9888 14.8142 11.4681 16.155 11.0841 16.6729C7.87528 20.9993 5.33787 26.0205 3.58966 31.0688C1.93904 35.8368 1.21891 40.7033 0.616095 45.7129Z" fill="#EF4444"/>
<path fill-rule="evenodd" clip-rule="evenodd" d="M52.919 112.773C52.9718 113.489 53.6094 114.017 53.7555 114.734C54.0003 115.936 54.0173 117.033 53.8644 118.282C53.7793 118.976 53.9758 120.271 53.1143 120.388C52.1109 120.524 50.9635 118.383 51.269 117.58C51.3101 118.492 50.522 118.996 49.8661 118.576C49.1593 118.124 49.1598 116.407 49.3433 115.726C49.3564 117.542 46.9284 120.102 46.1705 117.358C45.6407 115.44 46.2579 111.866 47.8194 110.549L52.919 112.773Z" fill="#EF4444"/>
<path fill-rule="evenodd" clip-rule="evenodd" d="M122.844 222.698C122.886 222.742 122.928 222.786 122.969 222.832L122.953 222.605C122.916 222.636 122.88 222.666 122.844 222.698Z" fill="#F5938A"/>
<path fill-rule="evenodd" clip-rule="evenodd" d="M150.88 178.915C150.834 179.093 150.848 179.264 150.921 179.43C151.689 179.562 152.921 179.972 153.124 180.862C153.223 181.293 153.02 181.687 153.233 182.123C153.377 182.417 153.646 182.962 153.823 183.201C154.038 183.489 154.397 183.522 154.509 183.905C154.575 184.13 154.408 184.372 154.508 184.591C154.597 184.788 154.843 184.844 154.99 185.017C155.202 185.269 155.609 186.082 155.625 186.427C155.654 187.036 155.375 186.952 154.869 187.019C155.071 187.585 155.313 188.059 155.472 188.649C155.774 189.761 155.311 189.148 154.814 189.814C154.627 190.063 154.734 191.001 154.796 191.288C154.917 191.845 155.078 192.199 155.056 192.802C155.025 193.65 154.854 193.902 154.202 194.429C153.705 194.83 153.653 194.917 153.661 195.598C153.672 196.413 154.014 198.077 153.138 198.454C153.256 198.707 153.661 199.414 153.34 199.726C153.071 199.988 152.113 199.693 151.743 199.81C151.765 200.302 152.31 200.67 152.304 201.157C152.293 201.995 151.56 201.761 151.139 201.978C150.65 202.23 150.999 202.812 150.831 203.32C150.595 204.031 150.145 204.217 149.483 204.223C148.099 204.235 148.735 204.862 148.228 205.748C147.872 206.371 145.872 207.214 145.3 206.545C145.321 206.755 145.449 207.491 145.312 207.681C145.039 208.058 144.203 207.736 143.77 207.821C143.258 207.921 141.917 208.633 141.706 207.642C141.256 209.18 139.702 207.938 138.777 208.097C138.318 208.175 138.007 208.557 137.556 208.741C136.709 209.084 135.662 209.021 134.79 208.775C134.552 209.265 133.856 209.396 133.366 209.18C132.983 209.012 132.831 208.433 132.39 208.419C132.009 208.407 131.913 208.807 131.637 208.893C131.234 209.019 131.237 208.853 130.925 208.664C130.813 208.597 130.837 208.471 130.698 208.403C130.576 208.343 130.395 208.457 130.301 208.402C129.842 208.131 129.508 207.337 129.807 206.774C130.012 206.389 130.414 206.048 130.641 205.626C131.308 204.386 132.165 203.072 132.49 201.688C132.596 201.235 132.674 200.21 132.484 199.764C132.285 199.295 131.996 199.304 131.957 198.691C131.89 197.632 131.958 196.868 132.429 195.911C132.883 194.989 133.465 194.119 133.873 193.176C134.308 192.172 134.519 191.064 134.76 190.002C135.349 187.412 135.672 184.661 134.917 182.077C134.414 180.353 133.756 178.589 132.535 177.233C131.056 175.59 128.491 174.852 126.567 173.898C123.212 172.235 120.203 169.911 116.978 168.017C115.351 167.062 113.795 165.985 112.191 164.993C110.826 164.148 109.639 163.106 108.313 162.217C106.328 160.887 104.248 159.765 101.826 159.5C99.5349 159.25 97.2528 158.99 95.0032 159.579C93.7513 159.907 92.3245 160.064 91.1425 160.6C89.8657 161.18 88.83 162.41 87.8074 163.323C85.5187 165.368 82.9747 167.087 80.5242 168.925C79.5559 169.651 78.1388 170.945 76.9502 171.134C75.5439 171.357 75.0684 170.581 74.0953 169.837C73.7906 170.128 73.1997 170.504 72.7464 170.354C72.0418 170.122 72.0314 168.942 71.8559 168.326C71.0357 168.933 70.0988 168.528 69.2752 168.106C69.0633 167.997 69.0273 168.099 68.8559 167.93C68.6254 167.702 68.6091 166.966 68.5881 166.683C68.5114 165.652 68.7583 164.521 69.624 163.861C68.9594 164.121 68.0415 163.064 67.7852 162.62C67.2994 161.777 67.1063 160.014 68.2928 159.663C68.2966 159.167 67.8012 158.766 68.057 158.234C68.2866 157.757 68.6527 157.836 69.1263 157.748C69.0792 157.155 68.6897 156.782 69.0093 156.159C69.362 155.472 70.1298 155.435 70.8097 155.231C70.8646 154.689 70.6608 154.517 70.9522 153.896C71.3012 153.153 72.2859 152.607 72.9833 152.254C73.4972 151.993 74.8634 151.562 75.2807 152.138C75.2416 151.542 75.1595 150.829 75.2484 150.241C75.3244 149.738 75.6672 149.517 75.7973 149.039C75.92 148.587 75.6031 147.977 75.9759 147.635C76.4731 147.18 77.6935 147.597 78.3166 147.495C78.5093 146.785 78.3035 145.675 77.5962 145.313C76.9762 145.892 77.8218 146.234 78.342 146.071C79.3852 145.743 79.3545 144.994 80.5673 145.48C81.2395 144.919 80.8691 143.689 81.9267 143.299C82.7247 143.005 83.3726 143.63 83.3331 144.422C83.0788 143.773 83.7189 142.589 84.0491 142.198C84.8688 141.224 85.9119 140.665 87.1477 140.384C88.367 140.106 90.0325 140.332 90.023 141.92C90.5498 141.124 91.058 139.888 92.0475 139.568C92.9881 139.265 92.9461 139.759 93.1098 140.64C93.3746 140.551 93.5489 140.356 93.6326 140.055C94.0005 139.739 94.4273 139.602 94.9133 139.643C95.8155 139.692 96.4011 140.444 97.2172 140.725C97.7895 140.922 99.1734 141.078 99.7243 140.705C100.765 140 99.8955 138.84 100.365 138.027C101.82 137.842 102.195 140.185 103.311 139.966C103.747 139.881 104.248 138.974 104.765 139.079C105.319 139.191 105.372 140.091 105.246 140.512C105.706 138.484 108.152 139.072 109.319 139.953C110.04 140.497 110.473 140.998 110.573 141.92C110.629 142.431 110.461 142.959 110.591 143.458C111.137 143.276 111.646 142.768 112.215 143.186C112.867 143.664 112.213 144.387 112.622 144.985C113.257 145.029 115.693 145.432 115.305 144.205C115.223 144.625 115.264 145.222 115.528 145.573C116.286 145.437 116.765 144.563 117.634 144.702C118.628 144.86 118.352 145.615 118.337 146.494C119.28 146.263 120.215 145.295 121.083 146.162C121.629 146.708 121.434 147.35 121.358 148.039C122.705 147.849 125.301 147.335 126.063 148.983C126.366 149.733 126.217 150.353 125.616 150.842C125.298 150.981 125.004 151.157 124.732 151.37C124.248 152.826 129.156 154.169 129.56 151.93C129.856 152.197 129.766 152.691 130.005 153.022C130.386 153.549 130.788 153.395 131.384 153.206C132.129 152.968 133.069 152.314 133.58 153.333C133.83 153.834 133.701 154.763 133.59 155.264C133.791 153.753 135.448 154.064 136.167 154.985C137.078 156.151 136.564 156.921 136.109 158.056C137.108 158.066 138.01 157.882 138.471 158.948C138.827 159.771 138.865 161.656 137.787 162.023C137.892 160.718 139.406 160.636 140.164 161.385C140.161 161.74 140.308 161.929 140.604 161.951C141.121 161.718 141.662 161.575 142.228 161.522C144.091 161.191 147.475 161.11 148.088 163.541C148.199 163.979 148.077 166.095 147.285 166.18C148.592 165.521 150.665 165.575 151.334 167.162C151.913 168.535 150.934 169.657 150.321 170.747C151.559 171.345 153.815 171.36 154.55 172.771C155.252 174.121 153.739 175.198 152.782 175.849C153.663 175.825 155.775 175.755 155.987 177.003C156.165 178.048 154.46 179.036 153.654 179.226C154.51 179.009 156.023 179.496 155.892 180.549C155.749 181.7 154.397 182.898 153.39 183.28C154.117 183.583 155.787 184.893 155.307 185.737C155.118 186.07 153.519 186.408 154.495 186.978L150.88 178.915Z" fill="#553821"/>
<path fill-rule="evenodd" clip-rule="evenodd" d="M128.815 248.789C128.596 248.784 128.378 248.781 128.159 248.776C125.388 248.291 122.658 247.593 119.865 247.221C119.836 247.218 119.808 247.214 119.779 247.21C119.674 247.197 119.569 247.182 119.464 247.17C119.525 247.178 119.585 247.186 119.646 247.194C117.651 246.949 115.64 246.948 113.632 246.9C111.64 246.361 109.657 245.787 107.645 245.327C107.479 245.289 107.313 245.251 107.146 245.214C107.141 245.193 107.135 245.172 107.13 245.15C107.079 244.943 107.038 244.733 107.002 244.523C106.815 242.684 106.948 240.833 106.855 238.989C107.096 237.673 107.285 236.351 107.402 235.025C107.954 233.29 108.398 231.532 108.689 229.75C108.829 229.331 108.962 228.91 109.088 228.489C109.501 227.108 109.532 226.196 109.48 224.742C109.46 224.176 109.543 223.645 109.545 223.08C109.545 222.935 109.466 222.837 109.396 222.739C109.448 222.524 109.501 222.31 109.553 222.095L120.766 218.34C121.748 218.558 121.994 218.794 122.277 219.257C122.867 221.901 123.631 224.508 124.418 227.099C125.374 230.245 126.385 233.375 127.267 236.543C128.039 239.315 128.501 242.111 128.892 244.959C128.992 245.685 129.088 246.419 129.187 247.157C129.117 247.496 129.046 247.841 128.967 248.182C128.92 248.386 128.869 248.589 128.815 248.789Z" fill="#1A969B"/>
<path fill-rule="evenodd" clip-rule="evenodd" d="M133.504 204.42C133.619 204.028 133.637 203.994 133.616 204.078C133.577 204.19 133.539 204.303 133.506 204.416C133.505 204.417 133.505 204.418 133.504 204.42Z" fill="#BA8C6A"/>
<path fill-rule="evenodd" clip-rule="evenodd" d="M61.2095 181.415C61.5435 180.374 62.1271 179.626 62.5122 178.624C63.1544 176.952 64.2535 175.82 65.6676 174.729C68.69 172.396 72.1117 170.628 74.7266 167.837C76.602 165.836 78.6026 163.954 80.6763 162.163C81.2774 162.031 81.8936 162 82.4958 161.876C84.1835 161.526 85.6592 160.665 86.9603 159.569C88.0752 158.629 89.0803 157.563 90.1638 156.588C90.4349 156.344 90.7092 156.103 90.9886 155.869C91.1224 155.757 91.2583 155.648 91.3938 155.538C91.4154 155.522 91.439 155.505 91.467 155.485C92.0078 155.093 92.5746 154.736 93.1904 154.474C93.3153 154.421 93.4321 154.351 93.5412 154.268C95.2516 155.272 97.0208 156.182 98.7894 157.053C106.508 160.856 114.289 164.6 121.49 169.342C122.402 169.943 123.304 170.56 124.193 171.195C124.647 171.519 125.098 171.848 125.545 172.183C125.74 172.328 125.934 172.476 126.128 172.623C126.467 172.897 126.468 172.893 126.391 172.829C128.183 174.242 129.886 175.751 131.507 177.357C133.116 178.95 134.657 180.609 136.218 182.249C136.776 182.836 137.351 183.405 137.901 183.998C137.916 184.019 137.931 184.039 137.946 184.061C137.992 184.221 138.031 184.384 138.062 184.548C138.144 185.739 138.088 186.928 137.95 188.112C137.482 191.238 136.597 194.307 135.834 197.369C135.678 197.992 135.511 198.613 135.332 199.23C135.15 199.823 134.958 200.412 134.751 200.995C134.574 201.49 134.381 201.979 134.181 202.465C134.155 202.527 133.923 203.102 134.113 202.63C134.279 202.216 134.123 202.605 134.079 202.708C133.981 202.936 133.883 203.164 133.786 203.392C133.286 204.563 132.781 205.734 132.373 206.941C132.133 207.65 132.249 208.396 132.59 209.027C131.456 210.445 130.242 211.712 128.778 213.029C126.774 214.831 125.28 217.135 123.389 219.051C121.081 221.388 118.708 223.922 115.569 225.107C113.411 225.921 111.668 225.076 109.51 224.527C108.138 224.178 107.452 223.645 106.259 223.08C105.815 222.87 105.221 222.875 104.748 222.731C103.905 222.474 103.409 222.079 102.607 221.714C101.447 221.186 100.221 221.045 99.0528 220.533C98.4601 220.273 98.0866 219.886 97.4335 219.638C96.5779 219.312 95.6071 219.323 94.7517 218.997C94.0013 218.711 93.4627 218.245 92.7473 217.929C91.3925 217.331 89.9514 216.98 88.6852 216.134C88.0179 215.689 87.5809 215.053 86.824 214.673C86.0581 214.289 85.5814 214.103 84.8904 213.56C79.8915 209.626 74.0422 206.58 69.4761 202.111C67.095 199.78 64.8973 196.478 63.777 193.334C63.1826 191.665 62.8552 189.709 62.1432 188.136C61.7137 187.187 61.3336 186.747 61.1048 185.667C60.775 184.108 60.7146 182.958 61.2095 181.415Z" fill="#BA8C6A"/>
<path fill-rule="evenodd" clip-rule="evenodd" d="M112.944 211.39C113.17 210.339 112.748 207.944 111.763 207.177C109.971 205.779 107.576 207.063 105.703 207.602C105.128 207.948 104.531 208.264 103.928 208.573C103.67 209.713 103.305 210.819 102.918 211.919C103.666 212.852 104.32 213.873 104.767 214.972C104.896 214.999 105.02 215.026 105.134 215.056C106.376 215.375 107.838 216.014 109.104 216.042C111.897 216.103 112.455 213.654 112.944 211.39Z" fill="#DC816F"/>
<path fill-rule="evenodd" clip-rule="evenodd" d="M76.0567 166.179C75.7283 166.904 75.2429 167.54 74.8562 168.232C74.4436 168.815 73.9888 169.368 73.5026 169.892C72.9919 170.205 72.5041 170.557 72.038 170.938C71.5222 171.191 71.0229 171.473 70.5412 171.783C70.5381 171.754 70.5347 171.724 70.531 171.691C70.4847 171.285 70.5364 170.844 70.5364 170.434C70.5364 168.555 70.5457 166.676 70.5364 164.797C70.5319 163.865 70.6821 162.878 71.2287 162.078C71.7396 161.329 72.4717 161.702 73.1004 162.157C73.8805 162.721 74.7927 163.498 75.2622 164.341C75.5815 164.915 75.9656 165.406 76.189 165.969C76.1378 166.033 76.0925 166.103 76.0567 166.179Z" fill="#AB7D60"/>
<path fill-rule="evenodd" clip-rule="evenodd" d="M74.7298 168.402C74.3505 168.923 73.9396 169.42 73.5013 169.892C73.1758 170.092 72.8605 170.309 72.5534 170.537C72.1172 170.429 71.8813 170.211 71.9061 169.746C71.9399 169.11 72.6069 167.687 73.2139 167.515C72.887 167.3 72.9775 166.226 73.0348 165.841C73.1641 164.971 73.4785 165.336 73.9472 165.778C74.522 166.319 74.7323 166.383 74.7165 167.237C74.7115 167.512 74.7298 167.788 74.7298 168.063V168.402Z" fill="#A17252"/>
<path fill-rule="evenodd" clip-rule="evenodd" d="M74.5547 180.322C72.9692 179.419 71.4429 178.411 69.9064 177.401C69.4939 177.398 69.0813 177.397 68.6687 177.392C68.6568 177.395 68.6439 177.398 68.6321 177.401C68.1089 178.286 67.4707 179.114 66.799 179.918C66.8044 179.946 66.8082 179.973 66.8145 180.002C66.7849 180.003 66.7553 180.004 66.7258 180.005C66.2665 180.552 65.7936 181.088 65.3328 181.625C65.2716 182.7 65.2126 183.774 65.1855 184.85C65.3078 185.241 65.4301 185.631 65.5525 186.021C66.4709 186.809 67.4097 187.582 68.3835 188.302C69.6771 188.033 70.9869 187.745 72.3016 187.505C72.6713 187.063 73.0534 186.631 73.4429 186.206C73.8314 184.966 74.3702 183.489 74.6369 182.052C74.601 181.481 74.5825 180.898 74.5547 180.322Z" fill="#DC816F"/>
<path fill-rule="evenodd" clip-rule="evenodd" d="M75.2446 176.139C75.8976 175.544 76.6227 174.912 77.2476 174.94C77.5362 174.954 77.602 175.054 77.6236 175.087C77.9047 175.506 77.4271 176.841 77.171 177.557C77.091 177.781 77.0282 177.947 76.9699 178.131C77.1176 178.271 77.268 178.407 77.4234 178.537L77.8386 178.645C77.8796 178.487 77.9875 178.176 78.0911 177.886C78.4915 176.767 78.9918 175.368 78.4364 174.539C78.2711 174.292 77.9388 173.992 77.2933 173.962C76.3127 173.917 75.4471 174.635 74.6758 175.335C74.8606 175.606 75.0498 175.875 75.2446 176.139Z" fill="#553821"/>
<path fill-rule="evenodd" clip-rule="evenodd" d="M112.328 203.783C112.632 203.533 112.872 203.257 113.084 203.012C113.596 202.417 113.834 202.173 114.465 202.337L114.483 202.342C114.679 202.393 114.926 202.494 115.003 202.639C115.116 202.854 114.946 203.349 114.783 203.823C114.696 204.073 114.607 204.333 114.534 204.609C114.472 204.845 114.418 205.097 114.364 205.358C114.651 205.595 114.934 205.835 115.212 206.083C115.237 205.963 115.262 205.845 115.285 205.729C115.349 205.416 115.41 205.119 115.479 204.857C115.543 204.616 115.627 204.372 115.707 204.138C115.949 203.437 116.179 202.771 115.866 202.181C115.67 201.811 115.303 201.546 114.738 201.398L114.713 201.392C113.466 201.067 112.869 201.764 112.343 202.374C112.129 202.623 111.905 202.888 111.629 203.098C111.583 203.132 111.537 203.166 111.492 203.2C111.774 203.389 112.053 203.584 112.328 203.783Z" fill="#553821"/>
<path fill-rule="evenodd" clip-rule="evenodd" d="M92.6671 187.629C92.3311 187.605 91.7209 186.739 90.9456 186.577C90.0574 186.391 89.3609 186.552 88.7769 187.155C86.9566 189.036 90.3189 189.299 91.5763 189.625L92.6671 187.629Z" fill="#BF6E5B"/>
<path fill-rule="evenodd" clip-rule="evenodd" d="M125.279 195.662L124.399 195.238C124.834 194.334 124.262 193.051 123.639 192.227C123.357 191.853 122.905 191.665 122.427 191.465C121.802 191.205 121.093 190.909 120.711 190.144L121.585 189.707C121.805 190.147 122.267 190.34 122.803 190.563C123.353 190.793 123.977 191.053 124.419 191.638C125.245 192.732 125.905 194.363 125.279 195.662Z" fill="#553821"/>
<path fill-rule="evenodd" clip-rule="evenodd" d="M86.9657 164.486C86.1956 164.285 85.4505 163.917 85.4671 163.059L86.4441 163.078C86.4373 163.425 87.4411 163.602 87.98 163.698C88.2146 163.739 88.4375 163.777 88.6153 163.827L88.3564 164.77C88.2216 164.732 88.0214 164.697 87.8101 164.66C87.5517 164.614 87.2569 164.562 86.9657 164.486Z" fill="#553821"/>
<path fill-rule="evenodd" clip-rule="evenodd" d="M109.688 224.686L109.692 224.724C109.738 224.661 109.782 224.596 109.825 224.531C109.709 224.511 109.652 224.564 109.688 224.686Z" fill="#F5938A"/>
<path fill-rule="evenodd" clip-rule="evenodd" d="M90.6738 230.829C91.0408 232.075 93.3636 231.544 94.345 231.65C94.5434 231.671 94.7402 231.706 94.9346 231.75C96.0224 231.995 97.0466 232.535 98.0464 232.701C99.3864 232.923 100.468 232.676 101.752 233.031C103.242 233.443 104.479 233.861 105.977 234.135C106.666 234.261 107.076 234.486 107.969 234.469C108.705 234.455 109.116 234.646 109.826 234.829C111.465 235.252 113.254 235.716 114.914 235.911C116.769 236.129 119.001 235.61 120.871 235.501C122.614 235.402 123.928 234.806 125.586 234.491C125.61 234.319 125.634 234.148 125.658 233.978L123.524 229.223C121.334 230.457 118.236 230.169 115.649 230.333C113.049 230.497 109.998 231.144 107.429 230.801C104.63 230.427 102.045 229.973 99.1388 230.156C97.8894 230.234 96.3584 230.17 94.8506 230.201C93.3292 230.233 91.832 230.36 90.6738 230.829Z" fill="#48ABAF"/>
<path fill-rule="evenodd" clip-rule="evenodd" d="M88.4941 230.829C88.8611 232.075 91.1839 231.544 92.1653 231.65C92.3637 231.671 92.5605 231.706 92.7548 231.75C92.7543 231.687 92.7536 231.626 92.7538 231.569C92.7587 231.113 92.7262 230.656 92.6708 230.201C91.1495 230.233 89.6523 230.36 88.4941 230.829Z" fill="#BA8C6A"/>
<path fill-rule="evenodd" clip-rule="evenodd" d="M118.276 223.977C118.472 223.768 118.655 223.535 118.808 223.29C118.815 223.287 118.822 223.283 118.829 223.28C118.839 223.322 118.848 223.359 118.854 223.391C118.98 224.036 118.942 224.634 119.113 225.28C119.292 225.954 119.498 226.642 119.745 227.294C120.082 228.184 120.471 229.046 120.814 229.929C120.702 229.945 120.594 229.967 120.489 229.994C120.18 230.039 119.862 230.044 119.542 230.044C119.529 230.044 119.517 230.045 119.505 230.046C119.494 229.963 119.483 229.88 119.473 229.798C119.379 229.036 119.072 228.356 118.833 227.628C118.652 227.076 118.257 226.502 118.124 225.96C117.986 225.399 117.875 224.848 117.826 224.279C117.996 224.212 118.151 224.111 118.276 223.977Z" fill="#731851"/>
<path fill-rule="evenodd" clip-rule="evenodd" d="M108.067 229.505C108.061 229.046 108.016 228.573 108.13 228.128C108.358 227.236 108.799 226.503 109.118 225.626C109.235 225.305 109.312 224.983 109.377 224.66C109.55 224.739 109.73 224.784 109.91 224.793C110.015 224.825 110.12 224.857 110.226 224.889C110.15 225.219 110.047 225.547 110 225.89C109.869 226.836 110.126 227.774 109.885 228.718C109.703 229.428 109.451 230.109 109.2 230.79L109.153 230.784C109.036 230.769 108.92 230.755 108.803 230.741C108.79 230.739 108.723 230.73 108.672 230.724C108.614 230.714 108.531 230.701 108.527 230.7C108.471 230.688 108.416 230.673 108.361 230.657C108.227 230.619 108.091 230.603 107.957 230.608C108.023 230.258 108.072 229.918 108.067 229.505Z" fill="#731851"/>
<path fill-rule="evenodd" clip-rule="evenodd" d="M113.487 255.109C113.174 255.072 112.687 254.733 112.397 254.822C111.995 254.944 111.99 255.621 111.958 255.934C111.905 256.452 111.794 257.03 111.688 257.539C111.687 257.542 111.687 257.544 111.686 257.547C111.344 257.486 110.987 257.402 110.587 257.293C109.786 257.075 109.001 256.799 108.227 256.5C107.171 256.09 106.145 255.637 105.094 255.187C105.227 254.435 105.47 253.699 105.713 252.979C105.988 252.166 105.778 251.272 105.835 250.427C105.868 249.936 106.033 249.959 106.134 249.552C106.234 249.151 106.12 248.566 106.12 248.147C106.12 247.336 106.014 246.455 106.105 245.653C106.161 245.163 106.381 244.746 106.404 244.247C106.429 243.7 106.406 243.27 106.537 242.726C106.756 241.81 106.585 240.889 106.812 239.979C107.061 238.979 107.4 237.905 107.518 236.906C107.61 236.118 107.74 235.312 107.781 234.509C107.951 234.586 108.121 234.661 108.292 234.736C108.276 235.961 108.447 237.211 108.35 238.421C108.304 238.999 108.083 239.505 108.059 240.098C108.039 240.6 108.066 241.111 108.066 241.613C108.066 242.033 107.956 242.615 108.053 243.016C108.191 243.584 108.48 243.428 109.04 243.42C110.288 243.404 111.537 243.425 112.786 243.421C113.589 243.418 114.226 243.481 115.003 243.637C116.034 243.844 117.063 243.612 118.102 243.9C118.798 244.094 119.477 244.24 120.159 244.393C120.704 244.516 121.441 244.42 121.937 244.719C122.169 244.389 121.674 243.091 121.618 242.74C121.55 242.164 121.461 241.591 121.349 241.022C121.179 240.698 121.032 240.364 120.909 240.019C120.557 238.609 120.293 237.006 120.091 235.553C120.727 235.449 121.366 235.36 121.988 235.189C122.117 236.263 122.239 237.338 122.454 238.394C122.772 239.959 123.211 241.562 123.703 243.077C123.984 243.941 124.263 244.757 124.531 245.582C124.837 246.523 126.302 246.466 127.193 246.486C127.73 246.497 129.267 246.204 129.492 246.738C129.611 247.02 129.472 247.757 129.473 248.06C129.473 248.928 129.473 249.796 129.473 250.664C129.473 252.04 129.442 253.431 129.743 254.765C129.848 255.234 129.921 255.687 130.021 256.149C130.087 256.456 130.281 256.751 130.317 257.065C127.366 256.922 124.558 257.681 121.668 257.89C121.56 256.769 121.056 255.703 119.749 255.647C118.787 255.606 117.932 255.385 116.956 255.376C116.131 255.367 115.449 255.097 114.599 255.098C114.245 255.099 113.838 255.15 113.487 255.109Z" fill="#731851"/>
<path fill-rule="evenodd" clip-rule="evenodd" d="M132.253 207.831C134.405 207.831 137.42 207.33 138.646 209.499C139.088 210.281 139.484 211.545 139.148 212.496C138.751 213.618 137.47 214.077 136.551 214.643C135.514 215.283 134.646 216.108 133.365 216.179C132.238 216.241 130.966 216.259 129.89 216.033C128.864 215.819 127.591 216.079 126.686 215.623C125.838 215.196 125.907 213.599 126.971 213.392L132.253 207.831Z" fill="#AB7D5F"/>
<path fill-rule="evenodd" clip-rule="evenodd" d="M129.557 210.017C129.496 210.099 129.435 210.181 129.374 210.263C130.642 209.969 132.646 209.798 133.657 210.908C133.981 211.264 134.013 211.656 134.01 212.105C134.008 212.61 134.077 212.695 133.601 212.81C132.7 213.027 131.902 212.368 131.076 212.507C130.414 212.618 129.237 215.187 128.294 213.922C128.124 213.695 128.083 213.204 128.155 212.923C128.306 212.337 128.468 212.582 129.008 212.526C130.395 212.382 128.712 211.717 128.723 211.129L129.557 210.017Z" fill="#966552"/>
<path fill-rule="evenodd" clip-rule="evenodd" d="M121.526 172.212C121.525 172.305 121.525 172.397 121.524 172.49C121.916 174.138 118.797 173.874 117.868 173.837C118.787 174.759 119.341 175.256 119.868 176.344C120.064 176.75 119.977 177.743 120.881 177.094C121.236 176.84 120.977 175.524 121.004 175.131C120.418 176.134 119.838 179.076 120.722 179.877C121.128 180.244 122.675 180.533 123.188 180.493C124.261 180.41 124.453 180.145 124.276 178.979C124.285 179.422 124.282 179.865 124.267 180.307C123.947 178.015 128.217 176.336 126.908 179.875C126.483 179.795 126.241 179.345 126.428 178.788C126.682 178.028 126.86 178.363 127.57 178.257C128.646 178.096 129.58 178.024 129.813 179.074C130.018 179.996 128.852 180.783 129.303 181.475C129.666 182.032 131.987 181.486 132.441 181.237C132.531 181.49 132.593 181.75 132.627 182.017C133.125 182.101 133.599 182.161 134.107 182.203C134.325 183.488 135.236 185.34 134.487 186.546C133.693 187.824 131.758 188.531 130.377 188.055C130.48 187.584 131.978 187.269 132.452 187.71C132.907 188.133 132.453 189.68 132.629 190.285C133.954 190.299 133.576 190.882 133.361 191.751C132.943 193.44 133.759 192.973 134.165 194.514C134.552 195.98 132.218 197.661 131.05 198.085C132.188 198.608 132.992 199.05 133.107 200.276C133.237 201.659 132.299 202.516 130.967 202.585C130.638 203.827 130.93 205.326 130.888 206.619C130.857 207.576 130.765 207.651 130.335 208.422C130.041 208.95 129.283 208.979 130.075 209.62C130.471 209.94 133.68 209.83 134.213 209.674C135.81 209.207 135.685 206.557 135.949 205.293C136.303 203.606 136.811 201.88 137.461 200.288C137.953 199.22 138.482 198.171 139.047 197.14C139.465 195.965 139.729 194.757 139.839 193.516C140.536 190.2 141.739 186.917 142.332 183.598C142.661 181.757 142.744 179.589 141.281 178.252C140.314 177.369 138.689 176.889 137.566 176.146C134.758 174.289 132.269 171.975 129.22 170.493C125.144 168.511 120.873 167.409 117.278 164.546C114.537 162.363 112.251 159.559 109.459 157.457C107.569 156.036 104.414 154.678 101.995 154.568C100.288 154.491 98.5628 154.803 96.8678 154.473C95.8068 154.266 95.1797 154.051 94.1164 154.032C92.0885 153.994 91.1743 153.746 90.1605 155.674C88.9837 157.913 86.9196 160.02 84.4961 160.811C83.6526 161.086 82.6036 160.899 81.8683 161.147C81.1514 161.389 81.1555 162.008 80.93 162.678C80.5849 163.705 79.9918 167.704 78.2188 167.268C80.4934 167.192 81.4549 167.275 83.1338 165.509C84.3518 164.227 84.9432 162.643 85.896 161.285C86.3253 160.672 87.1835 159.919 87.9224 159.659C89.6716 159.046 92.4206 159.55 94.2835 159.55C96.2047 159.55 98.7065 159.105 100.536 159.605C101.302 161.361 99.5715 162.619 98.0245 162.259C99.3528 163.098 100.584 164.02 102.166 163.046C102.27 164.853 103.348 165.404 104.94 165.685C106.238 168.797 102.435 168.522 101.406 170.29C100.13 172.483 105.418 172.666 106.529 171.743C104.788 172.042 107.875 173.562 108.248 173.727C108.468 172.865 108.179 172.005 108.394 171.135C109.345 170.827 110.163 171.499 111.052 171.663C112.339 171.901 112.953 171.897 112.676 173.542C112.489 174.654 111.619 174.696 112.771 175.673C113.284 176.108 114.943 176.365 115.429 175.905C115.826 175.53 115.46 173.861 115.401 173.436C115.833 174.024 116.52 174.603 117.14 175.006C118.097 175.628 118.029 175.481 119.049 175.25C120.567 174.906 121.531 174.383 123.177 174.414L121.526 172.212Z" fill="#553821"/>
<path fill-rule="evenodd" clip-rule="evenodd" d="M88.2406 193.246C88.4198 193.246 88.6038 193.23 88.793 193.199L88.695 192.612C87.4267 192.824 86.4518 192.156 85.7154 190.569C85.1946 189.446 85.1858 188.344 85.1765 187.177L84.582 187.181C84.5918 188.415 84.6011 189.58 85.1761 190.819C85.9245 192.432 86.9538 193.246 88.2406 193.246Z" fill="#553821"/>
<path fill-rule="evenodd" clip-rule="evenodd" d="M58.466 32.6721C58.1516 32.9899 58.14 33.0588 58.1695 34.4478C58.1862 35.2425 58.1462 35.9471 58.0806 36.0132C58.0148 36.0794 57.3185 36.2282 56.5331 36.3437C53.0897 36.8506 50.1947 37.8718 47.1221 39.6638C44.9037 40.9577 43.7012 41.868 41.8844 43.6289C40.0062 45.4493 38.7664 47.0368 37.1694 49.6664C36.7108 50.4217 35.8289 52.1893 35.8289 52.3535C35.8289 52.3872 35.6851 52.7328 35.5093 53.1214C34.5206 55.3071 33.641 59.3425 33.6092 61.8389C33.5873 63.5654 33.6554 63.4912 31.9466 63.6491C30.6523 63.7688 30.4472 63.8216 30.232 64.0902C29.8937 64.5126 29.9264 64.9728 30.3231 65.3739C30.6558 65.7103 30.6715 65.7125 32.108 65.6273C32.9051 65.5801 35.3097 65.4545 37.4515 65.3481C39.5933 65.2418 42.3679 65.0963 43.6173 65.0246C47.2052 64.8191 48.1132 64.7717 49.913 64.697C51.6829 64.6235 54.9368 64.4491 58.5451 64.2343C59.7231 64.1641 61.538 64.0758 62.578 64.0379C63.618 63.9999 64.9323 63.9426 65.4986 63.9106C66.065 63.8785 67.9302 63.7898 69.6437 63.7134C71.3571 63.6372 73.6936 63.5188 74.8359 63.4504C75.9782 63.382 77.5846 63.2922 78.4056 63.2508C79.2267 63.2093 80.2489 63.15 80.6773 63.119C81.1056 63.088 82.1863 63.0284 83.0787 62.9864C88.8981 62.7132 90.4665 62.5798 90.7333 62.3357C91.0821 62.0165 91.0905 61.2115 90.7483 60.8984C90.5387 60.7065 90.2745 60.6762 89.0623 60.7044C88.2716 60.7229 87.582 60.6948 87.5298 60.642C87.4776 60.5891 87.3368 59.8847 87.2168 59.0765C86.9734 57.4357 86.9258 57.2037 86.6586 56.3601C86.5557 56.0353 86.4034 55.5037 86.3202 55.1789C86.2369 54.854 86.116 54.4857 86.0517 54.3604C85.9871 54.2351 85.9344 54.0656 85.9344 53.9841C85.9344 53.6765 84.6995 50.8936 84.0535 49.7455C83.1985 48.2259 82.446 47.0559 82.058 46.643C81.891 46.4651 81.6001 46.1128 81.4116 45.8601C80.6138 44.7902 78.9907 43.1503 77.6644 42.0742C76.6339 41.2379 73.7889 39.3439 72.9537 38.9381C69.269 37.1479 65.8245 36.2296 62.1365 36.0548C60.9727 35.9996 60.4162 35.9207 60.2898 35.793C60.1807 35.6827 60.1046 35.313 60.098 34.8616C60.0731 33.1623 60.0361 32.8918 59.7906 32.6176C59.4505 32.2377 58.872 32.2614 58.466 32.6721ZM48.1578 42.0867C48.1563 42.177 47.908 42.6431 47.6062 43.1226C46.7777 44.4384 45.1754 47.4811 45.1751 47.7388C45.175 47.7976 45.029 48.1685 44.8505 48.5631C44.672 48.9576 44.526 49.3554 44.526 49.4472C44.526 49.5388 44.4717 49.6701 44.4054 49.7386C44.2304 49.9194 43.4108 53.1958 43.1759 54.6539C42.9741 55.9047 42.9005 56.6497 42.774 58.7226C42.6616 60.562 42.3289 60.8167 39.9932 60.8527C38.1815 60.8806 37.851 60.7401 37.5233 59.8022C37.2799 59.1058 37.448 58.1879 38.2977 55.5726C38.9946 53.4279 39.1443 53.0499 39.8823 51.5695C41.0558 49.2153 42.0783 47.6399 43.6304 45.7945C45.7308 43.2972 48.1711 41.2987 48.1578 42.0867ZM66.1389 68.3981C63.99 68.4506 58.2676 68.7152 55.3649 68.8964C52.9987 69.044 51.9446 69.1035 48.4202 69.2885C46.3855 69.3952 44.0197 69.5401 43.163 69.6105C42.3063 69.6808 39.9405 69.8036 37.9058 69.8832C35.8711 69.963 34.1257 70.0548 34.0273 70.0872C33.8432 70.1478 33.8566 70.362 34.1295 71.7164C34.3311 72.7177 34.9051 74.6328 35.1823 75.2293C35.3273 75.5412 35.5397 76.0448 35.6542 76.3486C36.239 77.8992 37.4903 80.0929 38.6174 81.5435C38.961 81.9858 39.2518 82.3477 39.2636 82.3477C39.2754 82.3477 39.5734 82.2073 39.926 82.0359C41.7254 81.1609 42.5716 80.7795 43.1411 80.5868C44.9842 79.9636 48.065 79.5603 50.1666 79.6673C52.1212 79.7666 62.3687 79.7636 63.8023 79.6631C65.3019 79.5581 66.1838 79.3786 67.0475 79.0031C67.3331 78.879 68.2093 78.512 68.9946 78.1878C69.78 77.8636 70.4809 77.5515 70.5523 77.4942C70.6237 77.4368 71.3657 77.0902 72.2011 76.7239C73.0364 76.3575 73.825 75.9995 73.9535 75.9282C74.2327 75.7731 75.2469 75.3079 77.6917 74.2137C78.6912 73.7663 79.8011 73.2609 80.158 73.0907C80.515 72.9204 81.1575 72.6237 81.5859 72.4314C82.442 72.0471 83.4911 71.5564 85.1154 70.7804C85.7001 70.5011 86.215 70.2726 86.2595 70.2726C86.4443 70.2726 87.7343 69.6197 87.8172 69.4844C87.8666 69.4035 87.799 69.2148 87.6671 69.065C87.0821 68.4008 85.9417 68.2665 84.4328 68.6843C83.1322 69.0444 81.3681 69.5958 81.0667 69.7365C80.9239 69.803 80.3398 70.0092 79.7686 70.1944C78.1816 70.7092 74.6956 71.9419 74.2204 72.1565C73.9878 72.2615 73.5054 72.4471 73.1484 72.569C72.7915 72.6908 71.9153 72.9961 71.2013 73.2474C69.7772 73.7488 65.3971 74.6964 63.9211 74.8227C62.7802 74.9202 62.3756 74.8278 62.1035 74.4079C61.633 73.6819 61.9854 72.6785 62.826 72.3506C63.2771 72.1746 65.1335 71.853 65.7146 71.85C66.1974 71.8476 69.1613 71.3691 71.0026 70.9961C72.3034 70.7328 73.2736 70.2266 73.5316 69.6768C73.784 69.1392 73.7827 69.0283 73.52 68.6228L73.3075 68.2948L70.3072 68.3321C68.6572 68.3527 66.7814 68.3824 66.1389 68.3981Z" fill="white"/>
</svg>
